<svg width="513" height="97" viewBox="0 0 513 97" fill="none" xmlns="http://www.w3.org/2000/svg">
<path d="M90.123 68.8493C90.123 85.1732 75.7696 95.1225 56.5921 95.1225C48.1945 95.1225 38.844 94.1097 32.65 94.1097C27.1112 94.1097 22.5253 95.1225 21.6319 95.1225C20.9768 95.1225 20.6194 94.5863 20.4407 93.9309C19.7856 91.8458 19.1305 88.3903 19.1305 87.318C19.1305 86.4243 19.5474 85.8881 20.679 85.6498C22.4657 85.2328 26.7538 84.4583 30.9229 84.4583C33.6625 81.2412 34.3176 74.8665 34.3176 62.9513C34.3176 50.2616 33.9007 37.4527 33.9007 27.563C33.9007 25.4778 34.675 24.5842 36.6404 24.5842H42.7152C44.1446 24.5842 45.038 25.4778 45.038 27.3247L44.9189 62.713C44.7997 73.4367 44.3828 80.8242 41.2859 84.8753C46.7056 85.1136 52.5422 85.5307 56.7112 85.5307C69.8139 85.5307 78.3306 79.3348 78.3306 68.6706C78.3306 58.0065 70.8263 52.585 59.9273 52.585H54.3885C52.9591 52.585 52.1849 52.0488 52.1849 50.619V44.1252C52.1849 42.6954 52.84 42.04 54.1503 42.04H57.6642C64.6324 42.04 71.1241 36.0824 71.1241 27.9205C71.1241 17.7925 60.4038 10.4646 45.6335 10.4646C24.7884 10.4646 11.4476 23.3927 11.4476 37.1548C11.4476 46.2104 17.1651 51.8105 22.5848 53.8361C23.3591 54.0744 23.8951 54.3723 23.8951 55.0277C23.8951 56.2192 21.6915 60.2108 20.679 61.8789C20.2621 62.5343 19.9047 62.7726 19.3687 62.7726C15.0806 62.7726 0.965467 55.0277 0.965467 37.2739C0.905909 15.3499 20.6194 0.694138 46.11 0.694138C64.2155 0.694138 82.3805 9.74973 82.3805 26.8481C82.3805 37.8697 74.4593 44.4827 69.1587 46.1508V46.687C78.6284 47.4615 90.123 54.3127 90.123 68.8493Z" fill="black"/>
<path d="M156.708 67.8365C156.708 68.2536 156.589 68.8493 156.47 69.2664C151.944 81.837 141.164 92.8586 123.177 92.8586C105.191 92.8586 94.4111 80.4071 94.4111 61.5215V45.1976C94.4111 21.6054 102.571 0.753714 121.093 0.753714C132.111 0.753714 138.841 8.49862 138.841 18.3883C138.841 33.8185 123.177 47.5211 105.072 52.585V60.9853C105.072 74.6878 112.695 83.6242 124.905 83.6242C138.603 83.6242 145.869 73.7942 149.621 65.096C149.859 64.4407 150.038 64.2024 150.633 64.2024C151.527 64.2024 156.708 66.645 156.708 67.8365ZM105.072 42.6954C115.435 39.5974 128.657 29.8865 128.657 18.7457C128.657 13.6818 126.096 10.0476 120.736 10.0476C110.373 10.0476 105.31 27.146 105.072 42.6954Z" fill="black"/>
<path d="M147.656 62.7726C147.656 46.687 159.329 32.9845 174.456 32.9845C184.402 32.9845 191.788 39.7166 191.788 48.8913C191.788 63.9045 178.089 71.5303 164.093 71.5303C162.664 71.5303 160.996 71.5303 159.805 71.4111C162.664 79.156 170.942 83.5647 180.769 83.5647C195.123 83.5647 203.401 74.092 207.213 65.0365C207.451 64.3811 207.749 64.1428 208.225 64.1428C209.238 64.1428 214.3 66.5854 214.3 67.777C214.3 68.194 214.181 68.6706 214.062 69.0876C210.072 81.0029 198.518 92.799 179.221 92.799C159.924 92.799 147.656 81.4199 147.656 62.7726ZM182.199 48.7721C182.199 44.2444 178.983 41.5038 174.278 41.5038C165.463 41.5038 157.84 50.6786 157.959 61.3427C157.959 61.8789 157.959 62.7726 158.078 63.3087C159.388 63.4279 160.639 63.5471 162.366 63.5471C172.61 63.5471 182.199 58.3639 182.199 48.7721Z" fill="black"/>
<path d="M246.461 75.9985C246.461 67.9557 247.355 61.2236 247.355 53.5978C247.355 46.8657 244.913 42.6954 238.659 42.6954C225.437 42.6954 218.052 68.0748 218.052 83.3859V88.8074C218.052 90.5947 217.159 91.5479 215.61 91.5479H209.416C207.63 91.5479 206.975 90.5351 206.975 88.8074V37.3931C206.975 35.0696 207.749 34.4143 209.416 34.4143H215.61C217.159 34.4143 218.052 35.1888 218.052 36.9761C218.052 39.4187 217.278 48.8913 217.04 53.2999L217.576 53.4191C221.09 43.2911 229.249 32.9249 241.637 32.9249C252.774 32.9249 258.849 39.2995 258.849 49.9041C258.849 53.7765 257.956 63.3683 257.956 72.0665C257.956 78.9177 260.695 83.0881 266.234 83.0881C274.513 83.0881 280.885 72.3643 283.863 65.096C284.102 64.4407 284.399 64.2024 284.876 64.2024C285.769 64.2024 290.951 66.645 290.951 67.8365C290.951 68.2536 290.831 68.7302 290.712 69.1472C287.854 77.5475 279.337 92.8586 264.031 92.8586C254.68 92.8586 246.402 86.3647 246.402 75.9985H246.461Z" fill="black"/>
<path d="M281.898 63.6662C281.898 46.8061 292.916 32.9845 309.592 32.9845C317.871 32.9845 325.256 36.6186 329.544 40.3719L330.08 40.1336V5.87727C330.08 3.91125 330.854 3.13676 332.522 3.13676H338.597C340.026 3.13676 341.038 4.03041 341.038 5.69854C341.038 11.2391 339.371 60.0916 339.371 70.9941C339.371 77.7262 341.813 83.0285 347.888 83.0285C356.285 83.0285 362.658 71.6494 365.517 65.0365C365.755 64.3811 366.053 64.1428 366.529 64.1428C367.72 64.1428 372.604 66.7046 372.604 67.6578C372.604 68.0749 372.485 68.6706 372.366 69.0876C369.269 78.4411 359.918 92.799 345.922 92.799C335.797 92.799 329.484 87.0797 329.484 78.4411L329.603 76.3559L329.067 76.2368C325.97 84.5179 318.347 92.799 306.793 92.799C291.904 92.799 281.779 81.0029 281.779 63.6662H281.898ZM329.008 50.4403C325.911 46.8061 319.419 42.6954 312.57 42.6954C301.552 42.6954 293.273 51.3935 293.273 64.2024C293.273 75.7006 299.884 83.0881 308.58 83.0881C321.801 83.0881 329.067 64.679 329.067 50.4403H329.008Z" fill="black"/>
<path d="M363.611 63.0109C363.611 46.9253 375.284 33.2228 390.411 33.2228C400.358 33.2228 407.743 39.9549 407.743 49.1296C407.743 64.1428 394.044 71.7686 380.048 71.7686C378.619 71.7686 376.951 71.7686 375.76 71.6494C378.619 79.3943 386.898 83.803 396.725 83.803C411.078 83.803 419.356 74.3303 423.168 65.2748C423.406 64.6194 423.704 64.3811 424.181 64.3811C425.193 64.3811 430.255 66.8237 430.255 68.0153C430.255 68.4323 430.136 68.9089 430.017 69.3259C426.027 81.2412 414.473 93.0373 395.176 93.0373C375.879 93.0373 363.611 81.6582 363.611 63.0109ZM398.154 49.0105C398.154 44.4827 394.938 41.7422 390.233 41.7422C381.418 41.7422 373.795 50.9169 373.914 61.581C373.914 62.1172 373.914 63.0109 374.033 63.5471C375.343 63.6662 376.594 63.7854 378.321 63.7854C388.565 63.7854 398.154 58.6022 398.154 49.0105Z" fill="black"/>
<path d="M421.381 63.6662C421.381 46.8061 432.4 32.9845 449.076 32.9845C457.354 32.9845 464.739 36.6186 469.027 40.3719L469.563 40.1336V5.87727C469.563 3.91125 470.338 3.13676 472.005 3.13676H478.08C479.51 3.13676 480.522 4.03041 480.522 5.69854C480.522 11.2391 478.854 60.0916 478.854 70.9941C478.854 77.7262 481.296 83.0285 487.371 83.0285C495.769 83.0285 502.141 71.6494 505 65.0365C505.238 64.3811 505.536 64.1428 506.013 64.1428C507.204 64.1428 512.087 66.7046 512.087 67.6578C512.087 68.0749 511.968 68.6706 511.849 69.0876C508.752 78.4411 499.402 92.799 485.465 92.799C475.34 92.799 469.027 87.0797 469.027 78.4411L469.147 76.3559L468.61 76.2368C465.513 84.5179 457.89 92.799 446.336 92.799C431.447 92.799 421.322 81.0029 421.322 63.6662H421.381ZM468.491 50.4403C465.394 46.8061 458.903 42.6954 452.054 42.6954C441.035 42.6954 432.757 51.3935 432.757 64.2024C432.757 75.7006 439.368 83.0881 448.063 83.0881C461.285 83.0881 468.551 64.679 468.551 50.4403H468.491Z" fill="black"/>
<path d="M469.742 23.7501L469.385 5.69854C469.385 2.60058 471.886 0.0983734 474.983 0.0983734C478.08 0.0983734 480.582 2.60058 480.582 5.69854L479.867 24.1672L469.742 23.7501Z" fill="black"/>
<path d="M330.437 23.7501L330.08 5.69854C330.08 2.60058 332.581 0.0983734 335.678 0.0983734C338.775 0.0983734 341.277 2.60058 341.277 5.69854L340.562 24.1672L330.437 23.7501Z" fill="black"/>
<path d="M207.272 54.6702L206.915 36.6186C206.915 33.5206 209.416 31.0184 212.513 31.0184C215.61 31.0184 218.112 33.5206 218.112 36.6186L217.397 55.0872L207.272 54.6702Z" fill="black"/>
<path d="M19.3092 52.7638L22.2871 53.4787C24.9672 54.134 26.6348 56.8745 25.9796 59.4959C25.3245 62.1768 22.5849 63.8449 19.9643 63.1896L16.9865 62.4747C16.9865 62.4747 14.7233 61.5215 14.2468 61.164" fill="black"/>
<path d="M25.0266 94.7054L21.2745 95.897C18.654 96.731 15.7952 95.3012 14.9614 92.7394C14.1276 90.1181 15.557 87.2584 18.1179 86.4243L20.6194 85.769" fill="black"/>
<path d="M56.9495 52.6446H53.0187C50.2791 52.6446 48.0159 50.2616 48.0159 47.3423C48.0159 44.4231 50.2791 42.04 53.0187 42.04L55.5797 42.1592" fill="black"/>
<path d="M19.7261 52.585C19.7261 52.585 20.7981 53.1212 21.751 53.4191C22.7039 53.717 20.3216 54.1936 20.3216 54.1936L19.6665 52.585H19.7261Z" fill="black"/>
</svg>
