<svg width="307" height="307" viewBox="0 0 307 307" fill="none" xmlns="http://www.w3.org/2000/svg">
<path d="M260.009 0.57196H47.5673C21.6808 0.57196 0.695557 21.5638 0.695557 47.4585V259.967C0.695557 285.862 21.6808 306.853 47.5673 306.853H260.009C285.895 306.853 306.88 285.862 306.88 259.967V47.4585C306.88 21.5638 285.895 0.57196 260.009 0.57196Z" fill="black"/>
<path d="M222.19 185.08C222.19 210.102 200.154 225.413 170.732 225.413C157.808 225.413 143.514 223.804 133.985 223.804C125.468 223.804 118.5 225.413 117.131 225.413C116.118 225.413 115.522 224.638 115.344 223.625C114.331 220.468 113.378 215.106 113.378 213.497C113.378 212.127 113.974 211.293 115.761 210.936C118.56 210.34 125.111 209.148 131.424 209.148C135.593 204.203 136.606 194.433 136.606 176.143C136.606 156.662 136.01 137.002 136.01 121.929C136.01 118.771 137.201 117.341 140.179 117.341H149.53C151.733 117.341 153.103 118.712 153.103 121.512L152.925 175.726C152.746 192.229 152.15 203.548 147.386 209.684C155.724 210.102 164.657 210.697 171.03 210.697C191.101 210.697 204.203 201.165 204.203 184.841C204.203 168.517 192.709 160.236 175.973 160.236H167.457C165.253 160.236 164.062 159.462 164.062 157.257V147.308C164.062 145.104 165.074 144.151 167.04 144.151H172.4C183.12 144.151 193.066 135.035 193.066 122.465C193.066 106.975 176.569 95.6556 153.937 95.6556C121.955 95.6556 101.526 115.494 101.526 136.584C101.526 150.466 110.281 159.045 118.619 162.202C119.811 162.619 120.585 162.977 120.585 163.99C120.585 165.777 117.19 171.913 115.642 174.535C115.046 175.547 114.45 175.905 113.676 175.905C107.125 175.905 85.4459 163.99 85.4459 136.763C85.4459 102.983 115.642 80.5233 154.771 80.5233C182.584 80.5233 210.397 94.4045 210.397 120.678C210.397 137.538 198.307 147.725 190.148 150.287V151.062C204.62 152.253 222.309 162.798 222.309 185.02L222.19 185.08Z" fill="white"/>
<path d="M113.557 160.415L118.143 161.547C122.252 162.56 124.754 166.73 123.801 170.841C122.788 174.952 118.619 177.454 114.51 176.501L109.924 175.369C109.924 175.369 106.41 173.939 105.695 173.343" fill="white"/>
<path d="M122.312 224.698L116.535 226.545C112.544 227.855 108.197 225.651 106.827 221.659C105.517 217.668 107.72 213.319 111.711 211.948L115.522 210.936" fill="white"/>
<path d="M171.328 160.177H165.253C161.024 160.177 157.57 156.483 157.57 152.074C157.57 147.606 161.024 143.972 165.193 143.972L169.124 144.21" fill="white"/>
<path d="M114.212 160.117C114.212 160.117 115.82 160.951 117.369 161.368C118.917 161.785 115.225 162.56 115.225 162.56L114.272 160.117H114.212Z" fill="white"/>
</svg>
